<?xml version="1.0" encoding="UTF-8"?>
<!DOCTYPE svg PUBLIC "-//W3C//DTD SVG 1.1//EN" "http://www.w3.org/Graphics/SVG/1.1/DTD/svg11.dtd">
<!-- Creator: CorelDRAW X8 -->
<svg xmlns="http://www.w3.org/2000/svg" xml:space="preserve" width="1748px" height="1240px" version="1.1" style="shape-rendering:geometricPrecision; text-rendering:geometricPrecision; image-rendering:optimizeQuality; fill-rule:evenodd; clip-rule:evenodd"
viewBox="0 0 1748 1240"
 xmlns:xlink="http://www.w3.org/1999/xlink">
 <defs>
  <style type="text/css">
   <![CDATA[
    .fil0 {fill:black;fill-rule:nonzero}
   ]]>
  </style>
 </defs>
 <g id="Слой_x0020_1">
  <metadata id="CorelCorpID_0Corel-Layer"/>
  <path class="fil0" d="M356 659c6,0 12,3 16,7 4,4 6,9 6,15 0,7 -2,12 -6,16 -4,4 -10,6 -16,6 -6,0 -11,-2 -15,-6 -4,-4 -7,-9 -7,-16 0,-6 3,-11 7,-15 4,-4 9,-7 15,-7zm15 8c-4,-3 -9,-6 -15,-6 -5,0 -10,3 -14,6 -3,4 -6,9 -6,14 0,6 3,11 6,15 4,3 9,6 14,6 6,0 11,-3 15,-6 3,-4 5,-9 5,-15 0,-5 -2,-10 -5,-14z"/>
  <polygon class="fil0" points="354,671 364,681 354,692 352,690 361,681 352,673 "/>
 </g>
</svg>
