<?xml version="1.0" encoding="UTF-8"?>
<!DOCTYPE svg PUBLIC "-//W3C//DTD SVG 1.1//EN" "http://www.w3.org/Graphics/SVG/1.1/DTD/svg11.dtd">
<!-- Creator: CorelDRAW X8 -->
<svg xmlns="http://www.w3.org/2000/svg" xml:space="preserve" width="1748px" height="1240px" version="1.1" style="shape-rendering:geometricPrecision; text-rendering:geometricPrecision; image-rendering:optimizeQuality; fill-rule:evenodd; clip-rule:evenodd"
viewBox="0 0 1748 1240"
 xmlns:xlink="http://www.w3.org/1999/xlink">
 <defs>
  <style type="text/css">
   <![CDATA[
    .fil0 {fill:black;fill-rule:nonzero}
   ]]>
  </style>
 </defs>
 <g id="Слой_x0020_1">
  <metadata id="CorelCorpID_0Corel-Layer"/>
  <path class="fil0" d="M425 661c6,0 11,2 15,6 4,4 7,10 7,16 0,6 -3,11 -7,15 -4,4 -9,7 -15,7 -6,0 -12,-3 -16,-7 -4,-4 -6,-9 -6,-15 0,-6 2,-12 6,-16 4,-4 10,-6 16,-6zm14 7c-4,-3 -9,-5 -14,-5 -6,0 -11,2 -14,5 -4,4 -6,9 -6,15 0,5 2,10 6,14 3,3 8,6 14,6 5,0 10,-3 14,-6 4,-4 6,-9 6,-14 0,-6 -2,-11 -6,-15z"/>
  <polygon class="fil0" points="435,680 425,690 415,680 416,679 425,688 433,679 "/>
 </g>
</svg>
