<?xml version="1.0" encoding="UTF-8"?>
<!DOCTYPE svg PUBLIC "-//W3C//DTD SVG 1.1//EN" "http://www.w3.org/Graphics/SVG/1.1/DTD/svg11.dtd">
<!-- Creator: CorelDRAW X8 -->
<svg xmlns="http://www.w3.org/2000/svg" xml:space="preserve" width="1748px" height="1240px" version="1.1" style="shape-rendering:geometricPrecision; text-rendering:geometricPrecision; image-rendering:optimizeQuality; fill-rule:evenodd; clip-rule:evenodd"
viewBox="0 0 1748 1240"
 xmlns:xlink="http://www.w3.org/1999/xlink">
 <defs>
  <style type="text/css">
   <![CDATA[
    .fil0 {fill:black;fill-rule:nonzero}
   ]]>
  </style>
 </defs>
 <g id="Слой_x0020_1">
  <metadata id="CorelCorpID_0Corel-Layer"/>
  <path class="fil0" d="M493 661c6,0 12,2 16,6 4,4 6,10 6,16 0,6 -2,11 -6,15 -4,4 -10,7 -16,7 -6,0 -11,-3 -15,-7 -4,-4 -7,-9 -7,-15 0,-6 3,-12 7,-16 4,-4 9,-6 15,-6zm14 7c-3,-3 -8,-5 -14,-5 -5,0 -10,2 -14,5 -3,4 -6,9 -6,15 0,5 3,10 6,14 4,3 9,6 14,6 6,0 11,-3 14,-6 4,-4 6,-9 6,-14 0,-6 -2,-11 -6,-15z"/>
  <polygon class="fil0" points="485,673 503,691 502,693 483,674 "/>
  <polygon class="fil0" points="503,674 485,693 483,691 502,673 "/>
 </g>
</svg>
