<?xml version="1.0" encoding="utf-8"?>
<!-- Generator: Adobe Illustrator 18.1.1, SVG Export Plug-In . SVG Version: 6.00 Build 0)  -->
<svg version="1.1" id="Layer_1" xmlns="http://www.w3.org/2000/svg" xmlns:xlink="http://www.w3.org/1999/xlink" x="0px" y="0px"
	 viewBox="0 0 44 44" enable-background="new 0 0 44 44" xml:space="preserve">
<g>
	<path d="M22,0c6.1,0,11.6,2.5,15.6,6.4c4,4,6.4,9.5,6.4,15.6c0,6.1-2.5,11.6-6.4,15.6c-4,4-9.5,6.4-15.6,6.4s-11.6-2.5-15.6-6.4
		C2.5,33.6,0,28.1,0,22c0-6.1,2.5-11.6,6.4-15.6C10.4,2.5,15.9,0,22,0L22,0z M36.2,7.8C32.5,4.2,27.5,2,22,2
		C16.5,2,11.5,4.2,7.8,7.8C4.2,11.5,2,16.5,2,22s2.2,10.5,5.9,14.2C11.5,39.8,16.5,42,22,42c5.5,0,10.5-2.2,14.2-5.9
		C39.8,32.5,42,27.5,42,22S39.8,11.5,36.2,7.8L36.2,7.8z"/>
	<polygon points="13.4,12 32,30.6 30.6,32 12,13.4 13.4,12 	"/>
	<polygon points="32,13.4 13.4,32 12,30.6 30.6,12 32,13.4 	"/>
</g>
</svg>
